<?xml version="1.0" encoding="utf-8"?>
<!-- Generator: Adobe Illustrator 21.1.0, SVG Export Plug-In . SVG Version: 6.00 Build 0)  -->
<svg version="1.1" id="Layer_1" xmlns="http://www.w3.org/2000/svg" xmlns:xlink="http://www.w3.org/1999/xlink" x="0px" y="0px"
	 viewBox="0 0 1920 3140" style="enable-background:new 0 0 1920 3140;" xml:space="preserve">
<style type="text/css">
	.st0{fill:#248DFF;}
	.st1{fill:#9ECB45;}
	.st2{display:none;fill:#577AFF;}
</style>
<g>
	<path class="st0" d="M2398.7,61.4c-1.4,0-2.9,0.1-4.3,0.1c-183.4,3.9-339.1,7.9-339.1,7.9s0.2,0,1.6,0
		c-43,4.5-103.2,15.1-170.3,41.4c-36,14.1-283.4,116.2-360,332c-72.2,203.3,78.6,374.6-162.2,507C957.1,1173.9,671,375.4,13.4,804.4
		c-164.5,107.4-274,135.7-343.8,113.3c11.1,246.9,56.8,438.5,97.4,568.9c37.9,121.9,60.9,156.4,81.7,181.1
		c153.1,182.3,455.1,151.9,564.1,141c20.3-2,191.4-21.1,339.3-105.6c111.2-63.5,165.9-127.2,225.8-187.6
		c798.6-804.9,1328,298.2,1722.1-142.4C3027,1007.6,2393.7,743.4,2398.7,61.4z"/>
</g>
<path class="st1" d="M291.5,1832.2c-5,13.3-17.3,23.1-31.9,25.1c-18.1,2.6-36.5-7.8-44.6-24c-5.1-10-6.1-21.8-2.2-32.1
	C230.7,1753.3,308.8,1786.4,291.5,1832.2z"/>
<rect class="st2" width="1920" height="2139"/>
</svg>
